<?xml version="1.0" encoding="UTF-8"?><svg id="connectivity_copy" xmlns="http://www.w3.org/2000/svg" xmlns:xlink="http://www.w3.org/1999/xlink" viewBox="0 0 32 32"><defs><style>.cls-1{fill:url(#linear-gradient);}.cls-2{fill:#fff;}</style><linearGradient id="linear-gradient" x1="15.99" y1=".61" x2="15.99" y2="26.19" gradientTransform="matrix(1, 0, 0, 1, 0, 0)" gradientUnits="userSpaceOnUse"><stop offset="0" stop-color="#4173cd"/><stop offset="1" stop-color="#a960ee"/></linearGradient></defs><circle class="cls-1" cx="15.99" cy="16.02" r="15.92"/><g><path class="cls-2" d="M8.67,24.82c-1.58,0-3.11-.82-3.96-2.28-1.26-2.18-.51-4.97,1.67-6.23l6.17-3.56c2.18-1.26,4.97-.51,6.23,1.67,.18,.32,.33,.65,.43,1,.16,.53-.15,1.09-.68,1.24-.53,.16-1.08-.15-1.24-.68-.06-.19-.14-.38-.24-.56-.7-1.22-2.27-1.64-3.5-.94l-6.17,3.56c-1.22,.71-1.64,2.28-.94,3.5,.34,.59,.89,1.02,1.55,1.19,.66,.18,1.35,.09,1.94-.26l3.96-2.26c.48-.28,1.09-.11,1.36,.37,.27,.48,.11,1.09-.37,1.36l-3.95,2.26c-.71,.41-1.5,.61-2.27,.61Z"/><path class="cls-2" d="M17.16,19.93c-1.58,0-3.11-.82-3.96-2.28-.19-.33-.34-.67-.44-1.03-.15-.53,.16-1.08,.69-1.24,.53-.15,1.08,.16,1.24,.69,.06,.2,.14,.4,.25,.58,.71,1.22,2.28,1.64,3.5,.94l6.17-3.56c1.22-.71,1.64-2.28,.94-3.5-.71-1.22-2.28-1.64-3.5-.94l-3.96,2.26c-.48,.27-1.09,.11-1.36-.37-.27-.48-.11-1.09,.37-1.36l3.95-2.26c1.05-.61,2.28-.77,3.46-.45,1.18,.32,2.16,1.07,2.77,2.12s.77,2.28,.46,3.46-1.07,2.16-2.12,2.77l-6.17,3.56c-.72,.41-1.5,.61-2.27,.61Z"/></g></svg>